# generated by HET_OBJWriter
o 0
v -84.6352667154138 -13.92459014219008 11.95731647916001
v -43.810439214458526 26.900240449627223 -69.69234161361257
v 26.90023979645122 -43.810436776772505 -69.69234339812259
v -13.92458770450406 -84.63526736858981 11.957314694649991
v 43.810439214458526 -26.900240449627223 69.69234161361257
v 84.6352667154138 13.92459014219008 -11.95731647916001
v 13.92458770450406 84.63526736858981 -11.957314694649991
v -26.90023979645122 43.810436776772505 69.69234339812259
v -127.93653690463574 -57.22586033141201 -31.34395371006193
v -87.11170940368046 -16.40102973959471 -112.99361180283451
v -16.40103039277071 -87.11170696599444 -112.99361358734453
v -57.22585789372599 -127.93653755781173 -31.343955494571947
v 87.11170940368046 16.40102973959471 112.9936118028345
v 127.93653690463574 57.22586033141201 31.34395371006192
v 57.22585789372599 127.93653755781173 31.34395549457194
v 16.40103039277071 87.11170696599444 112.99361358734453
v 39.108421553678255 -137.6682752883896 11.95731335626747
v 79.93324905463354 -96.8434446965723 -69.6923447365051
v 137.6682759735961 -39.108417777609716 -11.957317817542531
v 96.84344847264083 -79.93324836942702 69.69234027523005
v -79.93324905463354 96.8434446965723 69.6923447365051
v -39.108421553678255 137.6682752883896 -11.957313356267472
v -96.84344847264083 79.93324836942702 -69.69234027523005
v -137.6682759735961 39.108417777609716 11.95731781754253
v 13.19181858874207 -57.5188633934902 130.92958518319202
v -57.51886042216768 13.191813832909528 130.92958696770202
v -115.25388734113027 -44.54321308605306 73.19456004873945
v -44.543208330220516 -115.25389031245278 73.19455826422943
v 57.51886042216768 -13.191813832909528 -130.92958696770202
v -13.191818588742073 57.5188633934902 -130.92958518319202
v 44.54320833022051 115.25389031245278 -73.19455826422943
v 115.25388734113025 44.54321308605306 -73.19456004873945
vn -0.9772838804215985 -0.1607873173389729 0.13807119776057178
vn -0.5058793774756672 0.3106172212971589 -0.8047378438214914
vn 0.3106172137549321 -0.5058793493276936 -0.8047378644272383
vn -0.1607872891909993 -0.9772838879638255 0.13807117715482486
vn 0.5058793774756672 -0.31061722129715885 0.8047378438214916
vn 0.9772838804215985 0.16078731733897292 -0.13807119776057175
vn 0.16078728919099944 0.9772838879638255 -0.138071177154825
vn -0.310617213754932 0.5058793493276937 0.8047378644272383
vn -0.9772838804215987 -0.16078731733897306 0.13807119776057153
vn -0.5058793774756672 0.31061722129715874 -0.8047378438214915
vn 0.3106172137549319 -0.5058793493276936 -0.8047378644272383
vn -0.16078728919099947 -0.9772838879638255 0.13807117715482506
vn 0.5058793774756672 -0.3106172212971588 0.8047378438214916
vn 0.9772838804215987 0.16078731733897306 -0.13807119776057164
vn 0.1607872891909995 0.9772838879638255 -0.1380711771548249
vn -0.310617213754932 0.5058793493276936 0.8047378644272383
vn -0.16078728919099936 -0.9772838879638255 0.1380711771548249
vn 0.310617213754932 -0.5058793493276936 -0.8047378644272383
vn 0.9772838804215985 0.16078731733897317 -0.1380711977605715
vn 0.5058793774756674 -0.31061722129715874 0.8047378438214915
vn -0.3106172137549322 0.5058793493276935 0.8047378644272383
vn 0.1607872891909994 0.9772838879638255 -0.13807117715482473
vn -0.5058793774756672 0.3106172212971589 -0.8047378438214915
vn -0.9772838804215987 -0.16078731733897306 0.13807119776057175
vn 0.5058793774756672 -0.3106172212971588 0.8047378438214914
vn -0.31061721375493195 0.5058793493276939 0.8047378644272382
vn -0.9772838804215985 -0.16078731733897317 0.13807119776057175
vn -0.16078728919099927 -0.9772838879638255 0.1380711771548248
vn 0.3106172137549318 -0.5058793493276937 -0.8047378644272385
vn -0.5058793774756674 0.31061722129715874 -0.8047378438214915
vn 0.16078728919099947 0.9772838879638255 -0.1380711771548248
vn 0.9772838804215987 0.16078731733897297 -0.13807119776057167
f 10//10 11//11 12//12
f 14//14 15//15 16//16
f 18//18 19//19 20//20
f 22//22 23//23 24//24
f 26//26 27//27 28//28
f 30//30 31//31 32//32
f 2//2 10//10 9//9
f 3//3 11//11 10//10
f 4//4 12//12 11//11
f 1//1 9//9 12//12
f 6//6 14//14 13//13
f 7//7 15//15 14//14
f 8//8 16//16 15//15
f 5//5 13//13 16//16
f 3//3 18//18 17//17
f 6//6 19//19 18//18
f 5//5 20//20 19//19
f 4//4 17//17 20//20
f 7//7 22//22 21//21
f 2//2 23//23 22//22
f 1//1 24//24 23//23
f 8//8 21//21 24//24
f 8//8 26//26 25//25
f 1//1 27//27 26//26
f 4//4 28//28 27//27
f 5//5 25//25 28//28
f 2//2 30//30 29//29
f 7//7 31//31 30//30
f 6//6 32//32 31//31
f 3//3 29//29 32//32
f 9//9 10//10 12//12
f 13//13 14//14 16//16
f 17//17 18//18 20//20
f 21//21 22//22 24//24
f 25//25 26//26 28//28
f 29//29 30//30 32//32
f 1//1 2//2 9//9
f 2//2 3//3 10//10
f 3//3 4//4 11//11
f 4//4 1//1 12//12
f 5//5 6//6 13//13
f 6//6 7//7 14//14
f 7//7 8//8 15//15
f 8//8 5//5 16//16
f 4//4 3//3 17//17
f 3//3 6//6 18//18
f 6//6 5//5 19//19
f 5//5 4//4 20//20
f 8//8 7//7 21//21
f 7//7 2//2 22//22
f 2//2 1//1 23//23
f 1//1 8//8 24//24
f 5//5 8//8 25//25
f 8//8 1//1 26//26
f 1//1 4//4 27//27
f 4//4 5//5 28//28
f 3//3 2//2 29//29
f 2//2 7//7 30//30
f 7//7 6//6 31//31
f 6//6 3//3 32//32
